<svg version="1.1" xmlns="http://www.w3.org/2000/svg" xmlns:xlink="http://www.w3.org/1999/xlink" width="44.02711" height="54.12077" viewBox="0,0,44.02711,54.12077"><g transform="translate(-219.88879,-150.79247)"><g data-paper-data="{&quot;isPaintingLayer&quot;:true}" fill="#ff00de" fill-rule="nonzero" stroke="none" stroke-width="0.5" stroke-linecap="butt" stroke-linejoin="miter" stroke-miterlimit="10" stroke-dasharray="" stroke-dashoffset="0" style="mix-blend-mode: normal"><path d="M224.23053,202.38292c0,-2.5 2.5,-2.5 2.5,-2.5h4.29782c7.67496,0 16.88951,1.35556 24.30968,-0.96714c0.32515,-0.10178 -0.67297,-0.15535 -0.97,-0.32226c-1.06268,-0.59715 -2.06764,-1.29195 -3.08838,-1.95826c-2.50247,-1.63355 -4.99121,-3.2893 -7.52864,-4.868c-5.82942,-1.7521 -12.14096,-3.10285 -17.63368,-5.77052c-2.08101,-1.01069 -5.00075,-1.34813 -6.04289,-3.41357c-0.79825,-1.58207 1.19975,-3.33486 1.79589,-5.00362c0.37272,-1.04332 0.73887,-2.08898 1.11069,-3.13262c2.023,-5.67823 3.08072,-12.01432 5.60621,-17.47199c0.93251,-2.01519 1.35218,-4.69593 3.27982,-5.79809c1.75526,-1.0036 4.03738,0.25065 6.04793,0.46479c7.96148,0.84798 16.13179,2.02815 23.97493,3.5925c0,0 2.45145,0.49029 1.96116,2.94174c-0.49029,2.45145 -2.94174,1.96116 -2.94174,1.96116c-6.20051,-1.24365 -12.52145,-1.92463 -18.7832,-2.84317c-1.65316,-0.24251 -3.32828,-0.35948 -4.96218,-0.70896c-1.01791,-0.21773 -2.06037,-1.50469 -2.96298,-0.98621c-0.98103,0.56353 -0.62966,2.17374 -0.97815,3.2501c-0.99954,3.08718 -2.01111,6.17191 -2.90567,9.29113c-0.77278,2.69459 -1.68268,5.34944 -2.62741,7.98866c-0.41724,1.16561 -0.61588,2.43567 -1.25637,3.49515c-0.36119,0.59748 -2.10714,0.77886 -1.64236,1.29985c0.71388,0.80022 2.15602,0.14061 3.18788,0.43258c5.96246,1.68712 11.89415,3.99889 17.83287,5.85548c2.78312,1.69679 5.54447,3.43268 8.24142,5.26334c1.36243,0.92481 3.09666,1.4764 4.06327,2.8095c1.12131,1.54647 2.69759,3.67465 1.89522,5.40817c-0.93927,2.0293 -3.82121,2.36051 -5.8871,3.2163c-3.09872,1.28364 -5.50607,0.96839 -8.77012,0.97394c-4.77532,0.00811 -9.55074,0 -14.32606,0h-4.29782c0,0 -2.5,0 -2.5,-2.5z"/></g></g></svg>