<svg version="1.1" xmlns="http://www.w3.org/2000/svg" xmlns:xlink="http://www.w3.org/1999/xlink" width="49.72412" height="54.6004" viewBox="0,0,49.72412,54.6004"><g transform="translate(-215.58613,-160.24577)"><g data-paper-data="{&quot;isPaintingLayer&quot;:true}" fill="#2fff00" fill-rule="nonzero" stroke="none" stroke-width="0.5" stroke-linecap="butt" stroke-linejoin="miter" stroke-miterlimit="10" stroke-dasharray="" stroke-dashoffset="0" style="mix-blend-mode: normal"><path d="M220.29555,198.2032c-0.07291,1.94638 0.06781,3.86744 0.70476,5.18788c3.15028,6.5308 11.87555,6.14117 17.97435,6.45538c3.09169,-0.08531 6.19052,-0.54662 9.18307,-1.32795c1.88529,-0.49223 5.65847,-1.35714 7.18038,-2.26466c1.19024,-0.70974 2.15869,-1.76163 3.05991,-2.81434c0.81424,-0.95111 1.67079,-1.95546 2.04604,-3.14994c0.99596,-3.17034 -5.95582,-6.57087 -7.7922,-7.36785c-6.78272,-2.94368 -14.0245,-2.76842 -21.11444,-1.27114c-3.5216,0.7437 -6.78191,0.86974 -7.92961,4.4978l-0.37165,0.7626c0,0 -0.98021,1.96041 -2.94062,1.29223zM221.41084,189.98492c2.51024,-1.82209 6.3231,-2.62503 9.10844,-3.2296c9.53074,-2.06869 19.83401,-1.70113 28.24816,3.80069c1.41862,0.9276 5.02456,3.87164 5.74257,5.58152c3.48966,8.31031 -5.16706,14.15717 -11.81869,16.36728c-4.60448,1.52991 -8.93935,2.1819 -13.77008,2.34136c-8.42518,-0.44046 -18.29247,-0.65484 -22.50568,-9.46011c-0.99575,-2.08104 -0.84786,-7.05089 -0.77907,-9.1092c0.27246,-8.15291 3.14278,-15.61526 6.66315,-22.86246c1.84722,-3.80277 3.94005,-8.75021 7.47671,-11.39585c3.18058,-2.37926 6.73473,-1.67557 10.42069,-1.67557c0,0 2.5,0 2.5,2.5c0,2.5 -2.5,2.5 -2.5,2.5c-2.00396,0 -5.65297,-0.84323 -7.34363,0.6166c-2.83446,2.44747 -4.47799,6.37777 -6.0547,9.63619c-2.2724,4.69613 -4.26159,9.3438 -5.38786,14.38915z"/></g></g></svg>