<svg version="1.1" xmlns="http://www.w3.org/2000/svg" xmlns:xlink="http://www.w3.org/1999/xlink" width="38.21732" height="57.39773" viewBox="0,0,38.21732,57.39773"><g transform="translate(-219.71878,-142.90085)"><g data-paper-data="{&quot;isPaintingLayer&quot;:true}" fill="#9966ff" fill-rule="nonzero" stroke="none" stroke-width="0.5" stroke-linecap="butt" stroke-linejoin="miter" stroke-miterlimit="10" stroke-dasharray="" stroke-dashoffset="0" style="mix-blend-mode: normal"><path d="M257.15043,173.77943c-1.21057,1.21057 -2.42113,0.76314 -3.064,0.36081c-2.86131,-0.259 -5.72535,-0.36861 -8.58984,-0.44913c-0.1314,8.03786 -0.22086,16.07713 -0.22086,24.10747c0,0 0,2.5 -2.5,2.5c-2.5,0 -2.5,-2.5 -2.5,-2.5c0,-8.08655 0.22954,-16.15946 0.39616,-24.23685c-2.75511,-0.08249 -5.50945,-0.20053 -8.26101,-0.46117c-1.94461,-0.1842 -10.16022,-0.76561 -11.40968,-1.85145c-1.36692,-1.18792 -0.85494,-3.5196 -1.28242,-5.2794c3.6037,-5.0661 7.65865,-9.51069 12.00424,-13.94671c0.97366,-0.99392 4.60499,-4.84186 6.29791,-5.7812c2.16676,-1.20225 4.56623,-4.23321 6.76286,-3.08643c1.9291,1.00712 1.10725,10.1537 1.06331,12.25811c-0.09247,4.42813 -0.18314,8.85906 -0.26404,13.29107c3.25526,0.08908 6.5103,0.20823 9.76184,0.533l1.80553,1.00635c0,0 1.76777,1.76777 0,3.53553zM240.76421,168.57355c0.04347,-2.73734 0.07282,-5.47562 0.07666,-8.21554c0.00176,-1.25606 -0.0525,-8.79503 0.2092,-10.05966c0.00996,-0.04813 0.02302,-0.09572 0.03882,-0.14281c-0.02025,0.02912 -0.04071,0.05629 -0.06138,0.08133c-1.65453,2.00334 -3.91466,3.42542 -5.731,5.28331c-3.66467,3.7485 -6.91318,8.09632 -10.7229,11.64564c-0.17182,0.56843 8.14129,0.94116 8.3089,0.95704c2.62518,0.24879 5.25299,0.36819 7.88171,0.45069zM241.3486,149.66489c0.49831,-0.7136 1.3734,-1.34276 1.0998,-2.08845c-0.28504,-0.77687 -0.62976,1.00236 -1.0998,2.08845z"/></g></g></svg>