<svg version="1.1" xmlns="http://www.w3.org/2000/svg" xmlns:xlink="http://www.w3.org/1999/xlink" width="52.31515" height="50.8529" viewBox="0,0,52.31515,50.8529"><g transform="translate(-210.76403,-153.74684)"><g data-paper-data="{&quot;isPaintingLayer&quot;:true}" fill="#00ffb3" fill-rule="nonzero" stroke="none" stroke-width="0.5" stroke-linecap="butt" stroke-linejoin="miter" stroke-miterlimit="10" stroke-dasharray="" stroke-dashoffset="0" style="mix-blend-mode: normal"><path d="M262.87088,203.0004c-0.904,2.33083 -3.23483,1.42684 -3.23483,1.42684l-0.00021,-0.13184c-9.33474,-0.51758 -18.71423,-0.27204 -28.06269,-0.27204c-4.51542,0 -10.25521,0.87802 -14.68028,-0.00184c-0.03162,-0.00629 -0.0632,-0.01271 -0.09474,-0.01926l-0.00106,0.01374l-3.7028,-0.28483c-1.30154,-0.08728 -2.33024,-1.17067 -2.33024,-2.49433c0,-0.86371 0.438,-1.62512 1.10399,-2.07423l3.37963,-2.34534l0.01585,0.02284l0.06939,-0.07945c4.31964,-2.50156 8.41913,-5.26521 12.62928,-7.94465c7.44486,-4.77947 13.85798,-11.40036 18.45054,-19.05265c1.49755,-2.49528 2.2861,-5.41234 2.75469,-8.28453c0.13447,-0.82426 0.62659,-1.68616 0.36384,-2.47891c-0.41695,-1.25804 -2.64782,-0.23488 -3.97197,-0.17889c-1.54751,0.06543 -3.11463,-0.06953 -4.64316,0.18077c-1.25054,0.20478 -6.67863,2.17849 -7.60216,2.92649c-3.08022,2.49475 -4.87034,8.48789 -6.67443,11.84166c0,0 -1.18525,2.20118 -3.38643,1.01593c-2.20118,-1.18525 -1.01593,-3.38643 -1.01593,-3.38643c2.26531,-4.20264 4.11659,-10.24398 7.92121,-13.34961c4.12408,-3.3664 10.2083,-4.08366 15.23999,-4.22622c2.78598,-0.07893 6.52993,-0.58064 8.38613,2.54765c1.17022,1.97219 0.00923,9.0993 -0.61244,10.98091c-1.66531,5.04038 -5.41931,9.23641 -8.72266,13.23848c-4.20183,5.0906 -8.22365,8.85246 -13.79314,12.43746c-2.99195,1.90379 -5.92823,3.85146 -8.92725,5.71676c1.64665,0.05595 3.33751,0.27847 4.84413,0.27847c11.09967,0 22.2555,-0.33063 33.33853,0.27965l1.53236,0.46256c0,0 2.33083,0.904 1.42684,3.23483z"/></g></g></svg>