<svg version="1.1" xmlns="http://www.w3.org/2000/svg" xmlns:xlink="http://www.w3.org/1999/xlink" width="48.82526" height="41.94887" viewBox="0,0,48.82526,41.94887"><g transform="translate(-218.78661,-161.21492)"><g data-paper-data="{&quot;isPaintingLayer&quot;:true}" fill="#00ff1b" fill-rule="nonzero" stroke="none" stroke-width="0.5" stroke-linecap="butt" stroke-linejoin="miter" stroke-miterlimit="10" stroke-dasharray="" stroke-dashoffset="0" style="mix-blend-mode: normal"><path d="M232.17443,203.16379c-2.5,0 -2.5,-2.5 -2.5,-2.5l0.10543,-1.29141c0.84765,-2.65264 2.54956,-5.02268 4.4073,-7.09725c7.92094,-7.35173 17.18663,-13.19456 24.28568,-21.48119c0.97348,-1.13633 1.70294,-2.46426 2.64404,-3.62755c0.59242,-0.73229 2.58995,-1.35912 1.94726,-2.04771c-0.69028,-0.73958 -1.82563,0.95754 -2.82638,1.10581c-1.63261,0.24189 -3.30122,0.00294 -4.95108,0.04651c-11.35825,0.29994 -22.62358,1.36415 -34.00007,1.36415c0,0 -2.5,0 -2.5,-2.5c0,-2.5 2.5,-2.5 2.5,-2.5c11.332,0 22.55345,-1.06235 33.86779,-1.3624c1.83386,-0.04863 11.17379,-0.33187 12.0302,1.01365c1.92671,3.02712 -3.18865,9.71091 -4.8998,11.74309c-7.11662,8.4518 -16.54409,14.3313 -24.55195,21.77096c-1.3595,1.43227 -2.64587,3.10305 -3.16387,5.00865l0.10543,-0.14533c0,0 0,2.5 -2.5,2.5z"/></g></g></svg>