<svg version="1.1" xmlns="http://www.w3.org/2000/svg" xmlns:xlink="http://www.w3.org/1999/xlink" width="47.16104" height="48.05771" viewBox="0,0,47.16104,48.05771"><g transform="translate(-217.63591,-151.71171)"><g data-paper-data="{&quot;isPaintingLayer&quot;:true}" fill="#00ff65" fill-rule="nonzero" stroke="none" stroke-width="0.5" stroke-linecap="butt" stroke-linejoin="miter" stroke-miterlimit="10" stroke-dasharray="" stroke-dashoffset="0" style="mix-blend-mode: normal"><path d="M230.40667,191.73299c1.76777,-1.76777 3.53553,0 3.53553,0l-0.16022,0.06489c6.21306,2.84803 14.89704,4.77441 21.24566,1.23687c1.89344,-1.05505 4.48758,-2.89236 4.76792,-5.40292c1.00029,-8.958 -9.05737,-14.96961 -15.99292,-17.73644c-2.23963,-0.89347 -4.90201,-0.7151 -7.17871,-1.41597c-0.66536,-0.00665 -1.32594,-0.01404 -1.97914,-0.01609l-0.33778,-0.27076l-0.05795,0.17384l-2.524,-0.84133c-1.02156,-0.31417 -1.76412,-1.26534 -1.76412,-2.38994c0,-1.38071 1.11929,-2.5 2.5,-2.5h2.57869v0.04237c0.08166,-0.01193 0.16377,-0.02204 0.24634,-0.0302c0.6549,-0.06471 2.36081,0.29223 4.21669,0.76733c2.76769,-0.1372 5.46008,-0.45007 8.25616,-1.25625c1.07073,-0.30872 2.29474,-0.4016 3.15223,-1.11327c0.71683,-0.59494 -0.71444,-1.9366 -1.56573,-2.3149c-1.9057,-0.84687 -6.54738,-1.79475 -8.54016,-1.90962c-3.28608,-0.18943 -9.52889,-0.00496 -12.36422,2.06029c-2.92454,2.13023 -4.69627,6.52809 -5.97924,9.76143c0,0 -0.92848,2.32119 -3.24967,1.39272c-2.32119,-0.92848 -1.39272,-3.24967 -1.39272,-3.24967c1.67481,-4.15768 3.99476,-9.3095 7.77378,-12.01419c5.25368,-3.76012 14.96481,-3.52865 20.86555,-2.09233c2.95329,0.71887 7.3363,1.60123 8.62322,5.12277c2.22286,6.08266 -0.4747,6.90468 -5.60404,9.052c-0.03284,0.01375 -0.06571,0.02738 -0.09861,0.0409c6.77769,3.32738 13.02296,8.4209 14.95769,16.05779c3.03991,11.99931 -9.61593,17.39432 -19.42439,16.7684c-4.72114,-0.30128 -8.92233,-1.44118 -13.19958,-3.37099l-1.3063,-1.08119c0,0 -1.76777,-1.76777 0,-3.53553z"/></g></g></svg>