<svg version="1.1" xmlns="http://www.w3.org/2000/svg" xmlns:xlink="http://www.w3.org/1999/xlink" width="42.24777" height="49.69732" viewBox="0,0,42.24777,49.69732"><g transform="translate(-216.49445,-151.46083)"><g data-paper-data="{&quot;isPaintingLayer&quot;:true}" fill="#00fffc" fill-rule="nonzero" stroke="none" stroke-width="0.5" stroke-linecap="butt" stroke-linejoin="miter" stroke-miterlimit="10" stroke-dasharray="" stroke-dashoffset="0" style="mix-blend-mode: normal"><path d="M258.74222,197.22554c0,2.5 -2.5,2.5 -2.5,2.5h-2.29217c-11.68314,0 -23.30202,1.42833 -34.9556,1.43261c0,0 -2.5,0 -2.5,-2.5c0,-2.5 2.5,-2.5 2.5,-2.5c5.49808,0.00212 10.98989,-0.31679 16.48461,-0.65421c-0.0742,-0.33091 -0.0742,-0.57057 -0.0742,-0.57057l0.01529,-0.84912c1.07116,-9.55613 0.95204,-18.90778 3.61334,-28.25586c0.5004,-1.75771 0.74464,-3.89415 1.33409,-5.79111c-5.71529,3.73763 -10.64706,8.38469 -16.2147,12.30335c0,0 -2.04808,1.43366 -3.48174,-0.61442c-1.43366,-2.04808 0.61442,-3.48174 0.61442,-3.48174c6.23388,-4.33678 11.53469,-9.90021 18.3214,-13.54482l1.75259,-2.25333c0.45673,-0.59896 1.17783,-0.98549 1.9892,-0.98549c1.32366,0 2.40705,1.0287 2.49433,2.33024l0.28483,3.7028l-0.04398,0.00338c0.01778,0.11817 0.03309,0.23686 0.04571,0.35613c0.45939,4.34289 -2.81263,9.75155 -3.64628,13.9469c-1.497,7.5337 -1.25769,15.24967 -2.0938,22.83612l0.01529,0.29696c0,0 0,0.10523 -0.02159,0.27252c4.51675,-0.2643 9.03731,-0.48035 13.56678,-0.48035h2.29217c0,0 2.5,0 2.5,2.5z"/></g></g></svg>